<?xml version="1.0" encoding="UTF-8"?>
<svg width="36px" height="36px" viewBox="0 0 36 36" version="1.1" xmlns="http://www.w3.org/2000/svg" xmlns:xlink="http://www.w3.org/1999/xlink">
    <!-- Generator: Sketch 51.3 (57544) - http://www.bohemiancoding.com/sketch -->
    <title>favicon</title>
    <desc>Created with Sketch.</desc>
    <defs></defs>
    <g id="favicon" stroke="none" stroke-width="1" fill="none" fill-rule="evenodd">
        <g id="Group-2" transform="translate(0.000000, 10.000000)">
            <path d="M9.6629356,16.7287234 C8.9660858,16.7287234 8.46668426,16.5478741 8.16471602,16.1861702 C7.86274777,15.8244663 7.67305261,15.3723431 7.59562486,14.8297872 L7.47948381,14.8297872 C7.21622944,15.5531951 6.78264051,16.0957429 6.17870401,16.4574468 C5.57476752,16.8191507 4.85470019,17 4.01848043,17 C2.74866524,17 1.76147616,16.6835138 1.05688358,16.0505319 C0.352291004,15.41755 0,14.5585161 0,13.4734043 C0,12.3732214 0.41423228,11.5292583 1.24270927,10.9414894 C2.07118625,10.3537205 3.36033905,10.0598404 5.11020633,10.0598404 L7.47948381,10.0598404 L7.47948381,8.90691489 C7.47948381,8.07801004 7.24720402,7.44503765 6.78263749,7.00797872 C6.31807095,6.5709198 5.60574629,6.35239362 4.64564211,6.35239362 C3.91782121,6.35239362 3.31002245,6.51063672 2.82222758,6.82712766 C2.33443272,7.1436186 1.9279431,7.5656002 1.60274653,8.09308511 L0.487792422,7.07579787 C0.812988996,6.44281598 1.33174718,5.90403591 2.04408253,5.45944149 C2.75641788,5.01484707 3.65456638,4.79255319 4.73855496,4.79255319 C6.19419676,4.79255319 7.32462504,5.13918093 8.1298737,5.83244681 C8.93512236,6.52571269 9.33774065,7.49024205 9.33774065,8.72606383 L9.33774065,15.1462766 L10.7082051,15.1462766 L10.7082051,16.7287234 L9.6629356,16.7287234 Z M4.32044717,15.462766 C4.7850137,15.462766 5.21085997,15.4100183 5.59799875,15.3045213 C5.98513753,15.1990243 6.31807188,15.0483166 6.5968118,14.8523936 C6.87555172,14.6564707 7.09234619,14.4304091 7.2472017,14.1742021 C7.40205721,13.9179952 7.47948381,13.6391859 7.47948381,13.337766 L7.47948381,11.4162234 L5.01729348,11.4162234 C3.94879046,11.4162234 3.17065318,11.5669311 2.68285832,11.8683511 C2.19506346,12.169771 1.95116969,12.6068234 1.95116969,13.1795213 L1.95116969,13.6542553 C1.95116969,14.2269532 2.16409282,14.671541 2.58994548,14.9880319 C3.01579814,15.3045229 3.59262626,15.462766 4.32044717,15.462766 Z M15.9743979,16.7287234 C15.3240048,16.7287234 14.8323459,16.5516418 14.4994065,16.1974734 C14.1664672,15.843305 14,15.3949495 14,14.8523936 L14,0 L15.8582568,0 L15.8582568,15.1462766 L17.6236008,15.1462766 L17.6236008,16.7287234 L15.9743979,16.7287234 Z" id="al" fill="#3D3D3D" opacity="0.847199"></path>
            <g id="icon-copy" transform="translate(23.000000, 5.000000)" fill="#DE9F5F">
                <rect id="Rectangle" transform="translate(3.519844, 3.097651) rotate(45.000000) translate(-3.519844, -3.097651) " x="3.03499584" y="1.01699672" width="1" height="4.16130927"></rect>
                <rect id="Rectangle-Copy-2" transform="translate(8.982471, 2.684457) rotate(45.000000) translate(-8.982471, -2.684457) " x="8.49762211" y="0.0194570921" width="1" height="5.32999964"></rect>
                <rect id="Rectangle-Copy" transform="translate(6.041056, 3.371674) rotate(-45.000000) translate(-6.041056, -3.371674) " x="5.55620797" y="1.2910192" width="1" height="4.16130927"></rect>
                <path d="M2.52304875,5.0515019 C2.52304875,5.73612901 1.95863334,6.29108523 1.26244269,6.29108523 C0.56625204,6.29108523 0.00183662811,5.73612901 0.00183662811,5.0515019 C0.00183662811,4.3668748 0.56625204,3.81191857 1.26244269,3.81191857 C1.95863334,3.81191857 2.52304875,4.3668748 2.52304875,5.0515019" id="Fill-1"></path>
                <path d="M8.4040404,4.54513889 C8.4040404,5.22976599 7.8396674,5.78472222 7.14340703,5.78472222 C6.44720129,5.78472222 5.88282828,5.22976599 5.88282828,4.54513889 C5.88282828,3.86051178 6.44720129,3.30555556 7.14340703,3.30555556 C7.8396674,3.30555556 8.4040404,3.86051178 8.4040404,4.54513889" id="Fill-3"></path>
                <path d="M5.88282828,2.06597222 C5.88282828,2.75059933 5.31840064,3.30555556 4.62219491,3.30555556 C3.92598917,3.30555556 3.36161616,2.75059933 3.36161616,2.06597222 C3.36161616,1.38134512 3.92598917,0.826388889 4.62219491,0.826388889 C5.31840064,0.826388889 5.88282828,1.38134512 5.88282828,2.06597222" id="Fill-6"></path>
                <path d="M11.7656566,1.23958333 C11.7656566,1.92421044 11.2012289,2.47916667 10.5050232,2.47916667 C9.80881745,2.47916667 9.24444444,1.92421044 9.24444444,1.23958333 C9.24444444,0.554956229 9.80881745,0 10.5050232,0 C11.2012289,0 11.7656566,0.554956229 11.7656566,1.23958333" id="Fill-6-Copy"></path>
            </g>
        </g>
    </g>
</svg>