<?xml version="1.0" encoding="UTF-8"?>
<svg width="32px" height="32px" viewBox="0 0 32 32" version="1.1" xmlns="http://www.w3.org/2000/svg" xmlns:xlink="http://www.w3.org/1999/xlink">
    <!-- Generator: Sketch 51.3 (57544) - http://www.bohemiancoding.com/sketch -->
    <title>Favicon</title>
    <desc>Created with Sketch.</desc>
    <defs></defs>
    <g id="0.-Branding-&amp;-Style" stroke="none" stroke-width="1" fill="none" fill-rule="evenodd">
        <g id="Style-Tile" transform="translate(-783.000000, -16.000000)">
            <rect fill="none" x="0" y="0" width="863" height="590"></rect>
            <g id="Typography" transform="translate(483.000000, 19.000000)"></g>
            <g id="Favicon" transform="translate(783.000000, 22.000000)">
                <g id="Balls" transform="translate(24.000000, 11.000000)" fill="#77B6EB">
                    <path d="M3.18364724,5.168936 C3.18364724,6.02842862 2.47142391,6.7251302 1.59291632,6.7251302 C0.714408739,6.7251302 0.00218541085,6.02842862 0.00218541085,5.168936 C0.00218541085,4.30944337 0.714408739,3.6127418 1.59291632,3.6127418 C2.47142391,3.6127418 3.18364724,4.30944337 3.18364724,5.168936" id="Fill-1"></path>
                    <path d="M7.36423479,5.168936 C7.36423479,6.02842862 6.6520804,6.7251302 5.77350387,6.7251302 C4.89499629,6.7251302 4.1828419,6.02842862 4.1828419,5.168936 C4.1828419,4.30944337 4.89499629,3.6127418 5.77350387,3.6127418 C6.6520804,3.6127418 7.36423479,4.30944337 7.36423479,5.168936" id="Fill-3"></path>
                    <path d="M5.27394101,1.58811861 C5.27394101,2.44761123 4.56171768,3.14431281 3.6832101,3.14431281 C2.80470251,3.14431281 2.09254812,2.44761123 2.09254812,1.58811861 C2.09254812,0.728625983 2.80470251,0.0319244053 3.6832101,0.0319244053 C4.56171768,0.0319244053 5.27394101,0.728625983 5.27394101,1.58811861" id="Fill-6"></path>
                </g>
                <path d="M4.47312926,17.322104 C5.42829858,17.322104 6.30570312,17.1411944 7.10506712,16.778962 C7.90401748,16.4172117 8.51731132,15.9394479 8.945707,15.346635 C9.20912829,15.0010054 9.34135599,14.671841 9.34135599,14.3588661 L9.34135599,12.0870251 C8.7481238,11.856858 8.13021095,11.6840776 7.48768637,11.5684774 C6.84516179,11.4534283 6.17795655,11.3956971 5.48613958,11.3956971 C4.843615,11.3956971 4.25893142,11.4660355 3.73153732,11.6056789 C3.20414322,11.7458735 2.75113582,11.9387702 2.37251511,12.1859535 C1.99348076,12.4326547 1.70082874,12.7336424 1.49524845,13.0872634 C1.2890477,13.4415044 1.18653332,13.8323958 1.18653332,14.2604199 C1.18653332,14.6884439 1.26850346,15.0918736 1.43340891,15.4702267 C1.59783178,15.8489932 1.8290579,16.174093 2.12515694,16.4458707 C2.4218075,16.717235 2.771749,16.9312126 3.17546401,17.0874589 C3.57917903,17.2441875 4.01157325,17.322104 4.47312926,17.322104 M4.22577109,18.3103552 C3.63295254,18.3103552 3.08046413,18.2068799 2.57009831,18.0013071 C2.05931885,17.7958721 1.61037893,17.5159652 1.22320961,17.1618619 C0.836109237,16.8081032 0.535460129,16.3880706 0.321262289,15.9023153 C0.10713339,15.4169734 0,14.8939478 0,14.3342717 C0,13.7745957 0.131745115,13.2641773 0.395648987,12.8034297 C0.659139216,12.342751 1.02562641,11.943317 1.49524845,11.6056789 C1.96480155,11.2685919 2.52894089,11.0048057 3.18801117,10.8154224 C3.8466678,10.6265214 4.5716451,10.5315887 5.36246049,10.5315887 C6.05476004,10.5315887 6.75009297,10.5933156 7.45094113,10.7164251 C8.15082413,10.8400168 8.78073261,11.0088014 9.34135599,11.2228478 L9.34135599,9.96330121 C9.34135599,8.74550296 8.99548198,7.77785039 8.30318243,7.06185914 C7.61136546,6.34545455 6.67219031,5.98776893 5.48613958,5.98776893 C4.85967812,5.98776893 4.19709188,6.11942094 3.4967263,6.38265605 C2.79642966,6.64637341 2.08399951,7.02472653 1.35950479,7.5185421 L0.889882753,6.67909696 C2.53693798,5.55974491 4.10257458,5 5.58520694,5 C7.13326375,5 8.35288846,5.44862263 9.24235757,6.34545455 C10.1322403,7.24325094 10.5766302,8.48171671 10.5766302,10.0622986 L10.5766302,16.3343351 C10.5766302,16.7463762 10.7581503,16.9518112 11.1206389,16.9518112 L11.1206389,18.0631718 C11.0377036,18.0792236 10.9512523,18.0917619 10.8612162,18.1003044 C10.7702148,18.1083648 10.6917607,18.1124294 10.6264741,18.1124294 C10.2966632,18.1124294 10.033173,18.0013071 9.83558976,17.7792692 C9.63800655,17.5566802 9.52232455,17.2893804 9.48971574,16.9764055 L9.48971574,15.9148536 C8.89641461,16.6885761 8.13827698,17.281389 7.21619905,17.692879 C6.29308703,18.1038868 5.29662241,18.3103552 4.22577109,18.3103552" id="Fill-9" fill="#31343C"></path>
                <path d="M15,0 L16.2604374,0 L16.2604374,15.4831988 C16.2604374,15.9610315 16.3967326,16.3398669 16.668151,16.6191537 C16.9401898,16.8995429 17.3147431,17.0391863 17.7928448,17.0391863 C17.9738823,17.0391863 18.1920787,17.0185877 18.4475029,16.9774594 C18.7028581,16.9367444 18.9376691,16.8748797 19.151867,16.792003 L19.3992251,17.7797719 C19.1186377,17.8953033 18.7727637,17.9897538 18.3609826,18.0640879 C17.9492016,18.1379398 17.594779,18.1751413 17.2986799,18.1751413 C16.6063804,18.1751413 16.0502381,17.9650905 15.6305289,17.545678 C15.2101993,17.1256454 15,16.5619048 15,15.8540427 L15,0 Z" id="Fill-24" fill="#31343C"></path>
            </g>
        </g>
    </g>
</svg>